<svg width="19" height="19" viewBox="0 0 19 19" fill="none" xmlns="http://www.w3.org/2000/svg">
<path fill-rule="evenodd" clip-rule="evenodd" d="M2 1C1.44772 1 1 1.44772 1 2V6.375C1 6.92728 1.44772 7.375 2 7.375H6.375C6.92728 7.375 7.375 6.92728 7.375 6.375V2C7.375 1.44772 6.92728 1 6.375 1H4.1875H2ZM2 11.625C1.44772 11.625 1 12.0727 1 12.625V17C1 17.5523 1.44772 18 2 18H6.375C6.92728 18 7.375 17.5523 7.375 17V12.625C7.375 12.0727 6.92728 11.625 6.375 11.625H4.1875H2ZM12.625 18C12.0727 18 11.625 17.5523 11.625 17V12.625C11.625 12.0727 12.0727 11.625 12.625 11.625H14.8125H17C17.5523 11.625 18 12.0727 18 12.625V17C18 17.5523 17.5523 18 17 18H12.625ZM12.625 1C12.0727 1 11.625 1.44772 11.625 2V6.375C11.625 6.92728 12.0727 7.375 12.625 7.375H17C17.5523 7.375 18 6.92728 18 6.375V2C18 1.44772 17.5523 1 17 1H14.8125H12.625Z" fill="#767676"/>
<path d="M1.5 6.375V2H0.5V6.375H1.5ZM6.375 6.875H2V7.875H6.375V6.875ZM6.875 2V6.375H7.875V2H6.875ZM4.1875 1.5H6.375V0.5H4.1875V1.5ZM2 1.5H4.1875V0.5H2V1.5ZM1.5 17V12.625H0.5V17H1.5ZM6.375 17.5H2V18.5H6.375V17.5ZM6.875 12.625V17H7.875V12.625H6.875ZM4.1875 12.125H6.375V11.125H4.1875V12.125ZM2 12.125H4.1875V11.125H2V12.125ZM11.125 12.625V17H12.125V12.625H11.125ZM14.8125 11.125H12.625V12.125H14.8125V11.125ZM17 11.125H14.8125V12.125H17V11.125ZM18.5 17V12.625H17.5V17H18.5ZM12.625 18.5H17V17.5H12.625V18.5ZM12.125 6.375V2H11.125V6.375H12.125ZM17 6.875H12.625V7.875H17V6.875ZM17.5 2V6.375H18.5V2H17.5ZM14.8125 1.5H17V0.5H14.8125V1.5ZM12.625 1.5H14.8125V0.5H12.625V1.5ZM18.5 2C18.5 1.17157 17.8284 0.5 17 0.5V1.5C17.2761 1.5 17.5 1.72386 17.5 2H18.5ZM17 7.875C17.8284 7.875 18.5 7.20343 18.5 6.375H17.5C17.5 6.65114 17.2761 6.875 17 6.875V7.875ZM12.125 2C12.125 1.72386 12.3489 1.5 12.625 1.5V0.5C11.7966 0.5 11.125 1.17157 11.125 2H12.125ZM11.125 6.375C11.125 7.20343 11.7966 7.875 12.625 7.875V6.875C12.3489 6.875 12.125 6.65114 12.125 6.375H11.125ZM17.5 17C17.5 17.2761 17.2761 17.5 17 17.5V18.5C17.8284 18.5 18.5 17.8284 18.5 17H17.5ZM12.125 12.625C12.125 12.3489 12.3489 12.125 12.625 12.125V11.125C11.7966 11.125 11.125 11.7966 11.125 12.625H12.125ZM7.875 12.625C7.875 11.7966 7.20343 11.125 6.375 11.125V12.125C6.65114 12.125 6.875 12.3489 6.875 12.625H7.875ZM6.375 18.5C7.20343 18.5 7.875 17.8284 7.875 17H6.875C6.875 17.2761 6.65114 17.5 6.375 17.5V18.5ZM1.5 12.625C1.5 12.3489 1.72386 12.125 2 12.125V11.125C1.17157 11.125 0.5 11.7966 0.5 12.625H1.5ZM7.875 2C7.875 1.17157 7.20343 0.5 6.375 0.5V1.5C6.65114 1.5 6.875 1.72386 6.875 2H7.875ZM17 12.125C17.2761 12.125 17.5 12.3489 17.5 12.625H18.5C18.5 11.7966 17.8284 11.125 17 11.125V12.125ZM6.375 7.875C7.20343 7.875 7.875 7.20343 7.875 6.375H6.875C6.875 6.65114 6.65114 6.875 6.375 6.875V7.875ZM1.5 2C1.5 1.72386 1.72386 1.5 2 1.5V0.5C1.17157 0.5 0.5 1.17157 0.5 2H1.5ZM0.5 17C0.5 17.8284 1.17157 18.5 2 18.5V17.5C1.72386 17.5 1.5 17.2761 1.5 17H0.5ZM11.125 17C11.125 17.8284 11.7966 18.5 12.625 18.5V17.5C12.3489 17.5 12.125 17.2761 12.125 17H11.125ZM0.5 6.375C0.5 7.20343 1.17157 7.875 2 7.875V6.875C1.72386 6.875 1.5 6.65114 1.5 6.375H0.5Z" fill="#767676"/>
</svg>
